<svg width="120" height="68" viewBox="0 0 120 68" fill="none" xmlns="http://www.w3.org/2000/svg">
<g clip-path="url(#clip0_177_293)">
<path d="M66.0845 64.2253L51.3803 49.5211M59.3239 30.4225C59.3239 45.3576 47.2167 57.4648 32.2817 57.4648C17.3467 57.4648 5.23944 45.3576 5.23944 30.4225C5.23944 15.4875 17.3467 3.38028 32.2817 3.38028C47.2167 3.38028 59.3239 15.4875 59.3239 30.4225Z" stroke="url(#paint0_linear_177_293)" stroke-width="6.76056" stroke-linecap="round" stroke-linejoin="round"/>
<g filter="url(#filter0_d_177_293)">
<path d="M7.1834 39.5574C6.27478 39.5574 5.35174 39.442 4.41427 39.2113C3.47681 38.9949 2.68357 38.6993 2.03455 38.3243L2.81337 34.798C3.64988 35.2451 4.42869 35.5407 5.14982 35.685C5.88537 35.8148 6.56323 35.8797 7.1834 35.8797C7.7603 35.8797 8.19298 35.7859 8.48143 35.5984C8.7843 35.4109 8.93574 35.1585 8.93574 34.8412C8.93574 34.5528 8.76988 34.3292 8.43816 34.1706C8.10644 33.9975 7.67376 33.8389 7.14013 33.6947C6.62092 33.5504 6.06565 33.3846 5.47433 33.1971C4.883 32.9952 4.32052 32.7356 3.78689 32.4183C3.26768 32.0865 2.84221 31.6539 2.5105 31.1202C2.17878 30.5722 2.01292 29.8871 2.01292 29.065C2.01292 28.0266 2.26531 27.1324 2.7701 26.3824C3.27489 25.618 3.99602 25.0339 4.93348 24.6301C5.87095 24.2118 6.97427 24.0027 8.24345 24.0027C9.09438 24.0027 9.92368 24.1181 10.7313 24.3488C11.5534 24.5652 12.2097 24.8608 12.7 25.2358L11.9645 28.416C11.2289 28.1131 10.5655 27.8968 9.97416 27.767C9.39726 27.6228 8.8492 27.5507 8.32999 27.5507C7.72424 27.5507 7.26272 27.6372 6.94543 27.8103C6.62813 27.9833 6.46948 28.2141 6.46948 28.5025C6.46948 28.7766 6.63534 29.0001 6.96706 29.1732C7.29878 29.3463 7.72424 29.5121 8.24345 29.6708C8.76267 29.8294 9.31793 30.0097 9.90926 30.2116C10.5006 30.4135 11.0558 30.6803 11.5751 31.0121C12.0943 31.3438 12.5197 31.7765 12.8515 32.3101C13.1832 32.8437 13.349 33.5144 13.349 34.322C13.349 35.995 12.801 37.2859 11.7049 38.1945C10.6232 39.1031 9.11602 39.5574 7.1834 39.5574ZM22.4214 36.3556C22.8396 36.3556 23.2795 36.3123 23.741 36.2258C24.217 36.1393 24.7001 35.9806 25.1905 35.7499L25.7097 38.5406C25.1761 38.8147 24.592 39.0238 23.9574 39.168C23.3372 39.3122 22.6233 39.3843 21.8156 39.3843C20.3589 39.3843 19.133 39.1464 18.1379 38.6704C17.1571 38.1945 16.4144 37.5383 15.9096 36.7018C15.4048 35.8652 15.1524 34.8989 15.1524 33.8028C15.1524 32.6779 15.4192 31.6971 15.9529 30.8606C16.5009 30.0241 17.2293 29.3751 18.1379 28.9136C19.0465 28.4521 20.0489 28.2213 21.145 28.2213C22.7747 28.2213 24.0223 28.7333 24.8876 29.7573C25.753 30.7669 26.1857 32.2091 26.1857 34.0841L19.7388 34.9061C20.2147 35.8725 21.1089 36.3556 22.4214 36.3556ZM19.3926 32.9158L22.7891 32.2019C22.7315 31.7404 22.5728 31.4015 22.3132 31.1851C22.0536 30.9544 21.7291 30.839 21.3397 30.839C20.7628 30.839 20.3013 31.0409 19.9551 31.4447C19.6234 31.8341 19.4359 32.3245 19.3926 32.9158ZM33.3397 39.3843C32.3445 39.3843 31.4431 39.1464 30.6355 38.6704C29.8278 38.1801 29.186 37.5094 28.71 36.6585C28.2485 35.8076 28.0178 34.834 28.0178 33.7379C28.0178 32.6418 28.2485 31.6827 28.71 30.8606C29.186 30.0385 29.8278 29.3967 30.6355 28.9352C31.4431 28.4593 32.3445 28.2213 33.3397 28.2213C34.0464 28.2213 34.7315 28.416 35.3949 28.8054C36.0583 29.1948 36.5703 29.8366 36.9309 30.7308V28.3727H41.4307V39.2113H36.8876V37.1993C36.5415 37.906 36.08 38.4469 35.5031 38.8219C34.9262 39.1969 34.205 39.3843 33.3397 39.3843ZM34.7459 35.9662C35.3372 35.9662 35.842 35.7571 36.2602 35.3388C36.6785 34.9061 36.8876 34.3797 36.8876 33.7596C36.8876 33.1394 36.6785 32.6346 36.2602 32.2452C35.842 31.8414 35.3372 31.6394 34.7459 31.6394C34.1257 31.6394 33.6065 31.8486 33.1882 32.2668C32.77 32.6851 32.5609 33.1971 32.5609 33.8028C32.5609 34.4086 32.77 34.9206 33.1882 35.3388C33.6065 35.7571 34.1257 35.9662 34.7459 35.9662ZM44.4662 39.2113V28.3727H48.966V31.077C49.2545 30.0962 49.7016 29.3751 50.3073 28.9136C50.9275 28.4521 51.6631 28.2213 52.514 28.2213L53.0548 32.0505C52.7087 32.0072 52.3698 31.9856 52.038 31.9856C50.0333 31.9856 49.0309 32.8077 49.0309 34.4518V39.2113H44.4662ZM60.0343 39.3843C58.8228 39.3843 57.7771 39.1464 56.8974 38.6704C56.0176 38.1945 55.3397 37.5455 54.8638 36.7234C54.3879 35.8869 54.1499 34.9278 54.1499 33.8461C54.1499 32.7788 54.3951 31.8197 54.8854 30.9688C55.3758 30.1179 56.0609 29.4472 56.9406 28.9568C57.8348 28.4665 58.8661 28.2213 60.0343 28.2213C61.4333 28.2213 62.5366 28.5098 63.3442 29.0867L62.8683 32.0288C62.5077 31.8702 62.1688 31.762 61.8515 31.7043C61.5342 31.6322 61.2313 31.5962 60.9429 31.5962C60.2362 31.5962 59.6737 31.7981 59.2555 32.2019C58.8516 32.5913 58.6497 33.125 58.6497 33.8028C58.6497 34.4663 58.8516 35.0071 59.2555 35.4254C59.6593 35.8292 60.1929 36.0311 60.8564 36.0311C61.4333 36.0311 62.1111 35.9085 62.8899 35.6633L63.301 38.6921C62.825 38.9228 62.3275 39.0959 61.8082 39.2113C61.3035 39.3267 60.7121 39.3843 60.0343 39.3843ZM65.8237 39.2113V24.9546L70.3884 24.2839V30.601C70.6913 29.851 71.1672 29.2669 71.8162 28.8487C72.4653 28.4304 73.2441 28.2213 74.1527 28.2213C75.5661 28.2213 76.6622 28.7117 77.441 29.6924C78.2199 30.6587 78.6093 32.0288 78.6093 33.8028V39.2113H74.0445V33.5649C74.0445 32.2812 73.5253 31.6394 72.4869 31.6394C71.8667 31.6394 71.3619 31.8702 70.9725 32.3317C70.5831 32.7788 70.3884 33.3846 70.3884 34.149V39.2113H65.8237ZM88.2481 36.3556C88.6664 36.3556 89.1063 36.3123 89.5678 36.2258C90.0437 36.1393 90.5269 35.9806 91.0173 35.7499L91.5365 38.5406C91.0028 38.8147 90.4187 39.0238 89.7841 39.168C89.164 39.3122 88.4501 39.3843 87.6424 39.3843C86.1857 39.3843 84.9598 39.1464 83.9646 38.6704C82.9839 38.1945 82.2411 37.5383 81.7364 36.7018C81.2316 35.8652 80.9792 34.8989 80.9792 33.8028C80.9792 32.6779 81.246 31.6971 81.7796 30.8606C82.3277 30.0241 83.056 29.3751 83.9646 28.9136C84.8733 28.4521 85.8756 28.2213 86.9717 28.2213C88.6015 28.2213 89.849 28.7333 90.7144 29.7573C91.5797 30.7669 92.0124 32.2091 92.0124 34.0841L85.5655 34.9061C86.0415 35.8725 86.9357 36.3556 88.2481 36.3556ZM85.2194 32.9158L88.6159 32.2019C88.5582 31.7404 88.3996 31.4015 88.14 31.1851C87.8804 30.9544 87.5559 30.839 87.1664 30.839C86.5895 30.839 86.128 31.0409 85.7819 31.4447C85.4502 31.8341 85.2627 32.3245 85.2194 32.9158ZM101.113 36.3556C101.532 36.3556 101.972 36.3123 102.433 36.2258C102.909 36.1393 103.392 35.9806 103.883 35.7499L104.402 38.5406C103.868 38.8147 103.284 39.0238 102.649 39.168C102.029 39.3122 101.315 39.3843 100.508 39.3843C99.0511 39.3843 97.8252 39.1464 96.83 38.6704C95.8493 38.1945 95.1065 37.5383 94.6017 36.7018C94.0969 35.8652 93.8445 34.8989 93.8445 33.8028C93.8445 32.6779 94.1114 31.6971 94.645 30.8606C95.193 30.0241 95.9214 29.3751 96.83 28.9136C97.7386 28.4521 98.741 28.2213 99.8371 28.2213C101.467 28.2213 102.714 28.7333 103.58 29.7573C104.445 30.7669 104.878 32.2091 104.878 34.0841L98.4309 34.9061C98.9068 35.8725 99.801 36.3556 101.113 36.3556ZM98.0848 32.9158L101.481 32.2019C101.424 31.7404 101.265 31.4015 101.005 31.1851C100.746 30.9544 100.421 30.839 100.032 30.839C99.4549 30.839 98.9934 31.0409 98.6472 31.4447C98.3155 31.8341 98.128 32.3245 98.0848 32.9158ZM107.251 39.2113V28.3727H111.751V31.077C112.039 30.0962 112.486 29.3751 113.092 28.9136C113.712 28.4521 114.448 28.2213 115.299 28.2213L115.839 32.0505C115.493 32.0072 115.154 31.9856 114.823 31.9856C112.818 31.9856 111.815 32.8077 111.815 34.4518V39.2113H107.251Z" fill="#E3E6E8"/>
</g>
</g>
<defs>
<filter id="filter0_d_177_293" x="0.660827" y="19.9464" width="119.235" height="20.9632" filterUnits="userSpaceOnUse" color-interpolation-filters="sRGB">
<feFlood flood-opacity="0" result="BackgroundImageFix"/>
<feColorMatrix in="SourceAlpha" type="matrix" values="0 0 0 0 0 0 0 0 0 0 0 0 0 0 0 0 0 0 127 0" result="hardAlpha"/>
<feOffset dx="1.35211" dy="-1.35211"/>
<feGaussianBlur stdDeviation="1.35211"/>
<feComposite in2="hardAlpha" operator="out"/>
<feColorMatrix type="matrix" values="0 0 0 0 0.0627451 0 0 0 0 0.0862745 0 0 0 0 0.0980392 0 0 0 0.16 0"/>
<feBlend mode="normal" in2="BackgroundImageFix" result="effect1_dropShadow_177_293"/>
<feBlend mode="normal" in="SourceGraphic" in2="effect1_dropShadow_177_293" result="shape"/>
</filter>
<linearGradient id="paint0_linear_177_293" x1="35.662" y1="26.1828" x2="58.7324" y2="64.2254" gradientUnits="userSpaceOnUse">
<stop stop-color="#0066CC"/>
<stop offset="1" stop-color="#7896EF"/>
</linearGradient>
<clipPath id="clip0_177_293">
<rect width="120" height="67.6056" fill="white"/>
</clipPath>
</defs>
</svg>
